PathFileType	3	(X/Y/Z)	D:\minhoCalibration\240510\subject2_KPNP\preferred\preferred19.trc
DataRate	CameraRate	NumFrames	NumMarkers	Units	OrigDataRate	OrigDataStartFrame	OrigNumFrames
200.0	200.0	15	10	mm	200.0	347	191	
Frame#	Time	Left_Ankle_Outer1			Left_Ankle_Inner1			Left_Knee_Outer1			Left_Knee_Inner1			Left_Wrist1			Right_Wrist1			Right_Knee_Inner1			Right_Knee_Outer1			Right_Ankle_Inner1			Right_Ankle_Outer1			
		X1	Y1	Z1	X2	Y2	Z2	X3	Y3	Z3	X4	Y4	Z4	X5	Y5	Z5	X6	Y6	Z6	X7	Y7	Z7	X8	Y8	Z8	X9	Y9	Z9	X10	Y10	Z10	
347	1.725	-726.61139	91.82103	-594.85376	-729.82172	97.532761	-537.75317	-568.45819	508.06995	-633.74689	-594.18738	497.39526	-542.65784	-592.20959	958.45209	-726.79456	-770.75879	1112.3036	-470.58487	-554.96765	820.43433	-132.95415	-620.68225	880.82056	-106.6347	-653.2962	500.96387	114.10314	-718.88287	556.95673	170.54282
348	1.73	-726.9978	90.222443	-595.8844	-730.7027	96.031761	-538.84259	-570.56537	507.26389	-633.9917	-596.64838	496.67856	-543.02014	-590.92896	958.54291	-726.51978	-773.31763	1109.4878	-471.61646	-560.0379	811.35876	-135.27045	-626.14099	871.42487	-108.60573	-668.3291	486.00644	103.8077	-732.99463	541.24292	157.85902
349	1.735	-727.39624	88.646362	-596.79736	-731.54834	94.610428	-539.10229	-572.20435	506.49506	-634.03217	-599.05811	495.91501	-543.33441	-589.55194	958.67511	-726.34088	-775.93915	1106.5505	-472.7283	-565.26324	802.26587	-137.52245	-631.82233	862.04114	-110.76256	-679.14923	471.42047	88.503685	-747.12939	525.60315	144.79504
350	1.74	-727.78528	87.235367	-597.92639	-732.24097	92.24662	-542.2453	-573.51031	505.5946	-633.7876	-602.92328	494.89621	-544.71289	-588.38208	958.71899	-726.11188	-778.57086	1103.3619	-473.87961	-570.62335	793.06244	-139.70909	-637.76337	852.56964	-112.96762	-693.8631	456.85196	77.186287	-761.14294	510.06311	130.93996
351	1.745	-728.19891	85.522926	-598.66235	-733.02081	90.332626	-543.33807	-574.49536	504.71222	-633.27765	-604.35486	494.40027	-543.80188	-587.32721	958.70331	-725.8819	-781.16632	1100.014	-475.146	-575.85785	783.74768	-142.17216	-643.78326	843.18823	-115.17895	-706.50836	442.70187	63.178955	-774.63654	494.73737	116.39095
352	1.75	-728.56732	83.673447	-599.07178	-733.50531	88.404617	-543.57727	-575.00946	503.81012	-632.61359	-607.65436	493.34811	-544.48773	-586.21582	958.58392	-725.78497	-783.63544	1096.5315	-476.16611	-581.70624	774.534	-144.36841	-649.82629	833.81683	-117.4511	-718.53485	428.87177	48.568325	-788.27319	479.80185	101.45145
353	1.755	-729.00623	81.459412	-598.84113	-734.7818	87.006485	-542.49701	-574.94226	502.95465	-632.15063	-609.69501	492.49222	-543.84161	-585.09528	958.49622	-725.72961	-786.01947	1092.9199	-477.68549	-587.25916	765.14166	-147.16913	-655.93262	824.46747	-119.82003	-730.4989	415.45297	33.580624	-801.60577	465.22681	85.980774
354	1.76	-729.56049	80.289566	-599.09668	-735.61298	85.732941	-541.96796	-575.8985	501.1843	-630.89636	-613.02533	491.20798	-544.37103	-584.35437	958.1264	-725.57776	-788.35303	1089.7759	-479.0123	-593.26532	755.84485	-149.9368	-662.15112	815.0553	-122.33518	-739.81195	402.58624	15.737686	-814.29993	450.71915	69.452316
355	1.765	-730.24048	79.098816	-598.59296	-736.33173	84.938171	-540.15845	-576.19092	499.81326	-630.15851	-616.00653	490.08896	-544.1601	-583.11932	957.88739	-725.84894	-790.57959	1086.5084	-480.12656	-599.4046	746.60162	-152.95413	-668.49817	805.74371	-125.02888	-751.87512	389.79849	0.97287542	-827.05139	436.7662	52.658043
356	1.77	-730.82898	78.056793	-597.5108	-737.02435	82.530502	-543.13666	-576.2774	498.38785	-629.42792	-618.61835	489.02689	-544.05023	-582.98755	957.3208	-725.27216	-792.55334	1083.4958	-481.16492	-605.62946	737.36584	-156.09389	-674.95496	796.38464	-127.91174	-762.09326	377.1087	-16.506868	-839.43726	423.29565	35.520794
357	1.775	-731.19055	77.83728	-597.03412	-737.02948	83.405334	-540.16998	-576.18616	497.20471	-628.87183	-621.02496	488.33112	-543.99597	-581.74988	957.10498	-725.87469	-794.52716	1080.6877	-482.03934	-612.13513	728.41333	-159.39462	-681.59827	787.00385	-131.20744	-774.95007	364.50256	-30.775911	-851.81458	410.17407	17.933455
358	1.78	-731.32806	78.119385	-597.33209	-736.62817	83.625183	-539.91602	-576.35864	496.34744	-628.27875	-623.05731	488.00021	-544.07922	-582.03583	956.17554	-724.8681	-796.47552	1078.1088	-482.69473	-618.31146	719.42029	-163.17374	-688.37268	777.43219	-135.02026	-782.81995	353.52817	-50.021164	-863.3316	397.63342	-0.27472603
359	1.785	-731.20447	78.082184	-597.53143	-737.29608	83.271393	-540.41357	-575.40735	497.00308	-628.44891	-624.38348	488.26245	-544.03131	-580.58423	956.18573	-725.34015	-798.37787	1075.8302	-483.16898	-624.73248	710.61871	-166.82285	-695.39795	768.22607	-138.62631	-795.25085	341.69516	-64.81588	-874.45569	385.57147	-18.827326
360	1.79	-731.00433	77.766434	-597.49915	-739.46558	81.475998	-545.75446	-576.54431	497.05267	-627.59174	-625.43951	488.7518	-544.62335	-580.0202	955.96588	-724.91583	-800.28766	1073.7793	-483.53513	-631.04523	702.19568	-171.02925	-702.33246	759.07446	-142.97412	-804.99188	331.00952	-82.222168	-885.53931	374.42844	-36.927998
361	1.795	-730.98199	78.06826	-598.44006	-739.40808	81.51963	-546.41437	-576.97357	497.97958	-627.50995	-625.85333	489.52487	-545.16711	-579.31927	956.10931	-724.3866	-802.14233	1071.6525	-483.95819	-637.76825	694.13281	-175.11661	-710.12598	750.03052	-146.68816	-814.52869	320.70349	-99.835716	-896.56702	362.99451	-56.573959
